<?xml version="1.0" encoding="UTF-8"?>
<svg id="_レイヤー_2" data-name="レイヤー 2" xmlns="http://www.w3.org/2000/svg" viewBox="0 0 1862.32 1028.39">
  <defs>
    <style>
      .cls-1 {
        fill: none;
        stroke: #000;
        stroke-miterlimit: 10;
        stroke-width: 3px;
      }
    </style>
  </defs>
  <g id="_レイヤー_1-2" data-name="レイヤー 1">
    <path class="cls-1" d="M851.8,35.66c-133.06,22.4-302.63,52.32-409.84,94.26C185.06,230.42,64.28,381.18,58.36,527.46c-10.54,260.22,490.85,508.38,913.11,499.18,412-8.98,887.31-265.99,872.95-513.31-15.42-265.51-572.24-452.16-941.8-477.67-146.47-10.11-405.93-24.25-632.79,145.08-63.01,47.03-247.36,184.63-239.34,350.37,12.93,267.34,521.79,513.27,954.92,481.6,392.9-28.73,858.45-259.39,850-499.38C1825.95,244.68,1303.19-30.42,837.86,4.51,439.96,34.38-11.76,298.55,1.8,547.95c14.35,264.02,548.27,477.9,984.43,454.92,403.8-21.28,877.12-253.66,874.59-489.54-2.71-252.4-549.85-471.97-972.13-502.26-248.07-17.79-453.69,29.69-586.89,72.13"/>
  </g>
</svg>