<?xml version="1.0" encoding="UTF-8"?>
<svg id="_レイヤー_2" data-name="レイヤー 2" xmlns="http://www.w3.org/2000/svg" xmlns:xlink="http://www.w3.org/1999/xlink" viewBox="0 0 465.69 454.29">
  <defs>
    <style>
      .cls-1 {
        fill: url(#_名称未設定グラデーション_2068);
      }
    </style>
    <linearGradient id="_名称未設定グラデーション_2068" data-name="名称未設定グラデーション 2068" x1="72.25" y1="52.82" x2="419.14" y2="399.71" gradientUnits="userSpaceOnUse">
      <stop offset="0" stop-color="#ffffb3"/>
      <stop offset=".13" stop-color="#faffad"/>
      <stop offset=".5" stop-color="#f2ffa3"/>
      <stop offset="1" stop-color="#f0ffa1"/>
    </linearGradient>
  </defs>
  <g id="_レイヤー_1-2" data-name="レイヤー 1">
    <path class="cls-1" d="M215.5,2.53c-47.52,2.68-83.75,5.21-120,30.46-36.84,25.66-52.73,60.19-64.15,85.85-8.29,18.62-65.04,146.07-1.85,230.77,24.8,33.24,58.99,44.93,127.38,68.31,90.98,31.1,150.71,51.52,210.46,22.15,77.39-38.04,95.26-130.31,96.46-137.08,5.83-32.76-2.27-66-18.46-132.46-18.77-77.01-28.15-115.52-50.77-136.62C352.62-5.22,292.13-1.8,215.5,2.53Z"/>
  </g>
</svg>