<?xml version="1.0" encoding="UTF-8"?>
<svg id="_レイヤー_2" data-name="レイヤー 2" xmlns="http://www.w3.org/2000/svg" xmlns:xlink="http://www.w3.org/1999/xlink" viewBox="0 0 441.05 382.87">
  <defs>
    <style>
      .cls-1 {
        letter-spacing: .25em;
      }

      .cls-2 {
        fill: #eaeaea;
        filter: url(#drop-shadow-1);
        font-family: NotoSansCJKjp-Black-90ms-RKSJ-H, 'Noto Sans CJK JP';
        font-size: 42px;
        font-weight: 800;
      }

      .cls-3 {
        fill: url(#_名称未設定グラデーション_1350);
      }
    </style>
    <linearGradient id="_名称未設定グラデーション_1350" data-name="名称未設定グラデーション 1350" x1="33.35" y1="93.26" x2="400.37" y2="331.61" gradientUnits="userSpaceOnUse">
      <stop offset="0" stop-color="#ffcc9e"/>
      <stop offset=".18" stop-color="#fbb86e"/>
      <stop offset=".35" stop-color="#f8a846"/>
      <stop offset=".53" stop-color="#f69b27"/>
      <stop offset=".69" stop-color="#f49211"/>
      <stop offset=".85" stop-color="#f38c04"/>
      <stop offset="1" stop-color="#f38b00"/>
    </linearGradient>
    <filter id="drop-shadow-1" filterUnits="userSpaceOnUse">
      <feOffset dx="5" dy="5"/>
      <feGaussianBlur result="blur" stdDeviation="3"/>
      <feFlood flood-color="#000" flood-opacity=".8"/>
      <feComposite in2="blur" operator="in"/>
      <feComposite in="SourceGraphic"/>
    </filter>
  </defs>
  <g id="_レイヤー_1-2" data-name="レイヤー 1">
    <g>
      <path class="cls-3" d="M202.44.13c-19.85.59-101.21,5.22-151.02,66.46-23.98,29.49-26.85,64.89-38.77,84.92-7.68,12.91-16.68,50.52-10.72,89.4,4.79,31.25,10.94,61,37.54,94.46,12.11,15.23,37.96,29.54,67.32,40.16,42.05,15.21,90.17-.24,126.63-2.55,44.46-2.81,68.72,17.21,107.31,6.92,20.77-5.54,36.92-18,48.46-33.23,26.03-34.35,47.14-68.99,51.3-133.32,3.54-54.8-10.09-93.02-38.06-120.6-28.18-27.79-47.77-17.17-102.25-58.94-9.04-6.93-21.34-17.26-41.54-24.92C236.48.48,216.12-.42,202.44.13Z"/>
      <text class="cls-2" transform="translate(53.6 178.21)"><tspan x="0" y="0">家庭での接し方が</tspan><tspan x="0" y="73.5">わからな</tspan><tspan class="cls-1" x="168" y="73.5">い</tspan><tspan x="220.5" y="73.5">. . .</tspan></text>
    </g>
  </g>
</svg>