<?xml version="1.0" encoding="UTF-8"?>
<svg id="_レイヤー_2" data-name="レイヤー 2" xmlns="http://www.w3.org/2000/svg" viewBox="0 0 1920 1130.72">
  <defs>
    <style>
      .cls-1 {
        fill: #f9ffeb;
      }

      .cls-2 {
        fill: #fffcd6;
      }
    </style>
  </defs>
  <g id="_レイヤー_1-2" data-name="レイヤー 1">
    <g>
      <path class="cls-1" d="M1920,50.71v1080h-785.2c-4.62,0-9.23-.23-13.81-.69h-.01c-8.76-.86-17.41-2.54-25.86-5.03-2.83-.83-5.64-1.76-8.42-2.77l-13.13-4.79-22.64-8.25-21.34-7.77-22.64-8.25-7.48-2.73c-4.8-1.75-9.68-3.18-14.62-4.28-9.21-2.08-18.61-3.04-28-2.89-11.79.18-23.57,2.12-34.93,5.82-.56.18-1.12.36-1.67.55l-45.22,15.45-44.21,15.1-8.69,2.97c-10.4,3.56-21.16,5.87-32.07,6.91h-.01c-4.46.43-8.94.65-13.43.65H0V50.71h774.88c16.62,0,33.1-2.94,48.68-8.7l8.61-3.18,46.15-17.04,39.09-14.43c3.04-1.12,6.11-2.12,9.21-2.98,10.95-3.06,22.23-4.52,33.48-4.37,9.2.1,18.38,1.28,27.36,3.53,5,1.24,9.94,2.82,14.78,4.73l6.89,2.71,22.17,8.73,20.88,8.23,21.44,8.44,11.56,4.56c3.17,1.25,6.37,2.38,9.61,3.38,13.54,4.23,27.66,6.39,41.89,6.39h783.32Z"/>
      <polygon class="cls-2" points="69.4 50.72 0 120.12 0 91.01 40.29 50.72 69.4 50.72"/>
      <polygon class="cls-2" points="129.4 50.72 0 180.12 0 151.01 100.29 50.72 129.4 50.72"/>
      <polygon class="cls-2" points="69.4 50.72 0 120.12 0 91.01 40.29 50.72 69.4 50.72"/>
      <polygon class="cls-2" points="189.4 50.72 0 240.12 0 211.01 160.29 50.72 189.4 50.72"/>
      <polygon class="cls-2" points="249.4 50.72 0 300.12 0 271.01 220.29 50.72 249.4 50.72"/>
      <polygon class="cls-2" points="309.4 50.72 0 360.12 0 331.01 280.29 50.72 309.4 50.72"/>
      <polygon class="cls-2" points="369.4 50.72 0 420.12 0 391.01 340.29 50.72 369.4 50.72"/>
      <polygon class="cls-2" points="429.4 50.72 0 480.12 0 451.01 400.29 50.72 429.4 50.72"/>
      <polygon class="cls-2" points="489.4 50.72 0 540.12 0 511.01 460.29 50.72 489.4 50.72"/>
      <polygon class="cls-2" points="549.4 50.72 0 600.12 0 571.01 520.29 50.72 549.4 50.72"/>
      <polygon class="cls-2" points="609.4 50.72 0 660.12 0 631.01 580.29 50.72 609.4 50.72"/>
      <polygon class="cls-2" points="669.4 50.72 0 720.12 0 691.01 640.29 50.72 669.4 50.72"/>
      <polygon class="cls-2" points="729.4 50.72 0 780.12 0 751.01 700.29 50.72 729.4 50.72"/>
      <polygon class="cls-2" points="789.4 50.72 0 840.12 0 811.01 760.29 50.72 789.4 50.72"/>
      <polygon class="cls-2" points="878.32 21.79 69.58 830.53 69.58 801.42 832.17 38.83 878.32 21.79"/>
      <polygon class="cls-2" points="724.67 146.33 69.58 801.42 0 871 0 900.11 69.58 830.53 770.82 129.29 724.67 146.33"/>
      <path class="cls-2" d="M960.1.01L69,891.11v-29.11L926.62,4.38c10.95-3.06,22.23-4.52,33.48-4.37Z"/>
      <path class="cls-2" d="M819.21,140.9L69,891.11,0,960.11v-29.11L785.73,145.27c10.95-3.06,22.23-4.52,33.48-4.37Z"/>
      <path class="cls-2" d="M1009.13,10.98L68.71,951.4v-29.11L987.46,3.54c5,1.24,9.94,2.82,14.78,4.73l6.89,2.71Z"/>
      <path class="cls-2" d="M895.31,124.8L68.71,951.4,0,1020.11v-29.11L873.64,117.36c5,1.24,9.94,2.82,14.78,4.73l6.89,2.71Z"/>
      <polygon class="cls-2" points="1052.18 27.94 68.95 1011.17 68.95 982.06 1031.3 19.71 1052.18 27.94"/>
      <polygon class="cls-2" points="937.55 142.58 0 1080.13 0 1051.02 68.95 982.07 916.67 134.35 937.54 142.58 937.55 142.58"/>
      <path class="cls-2" d="M1094.79,44.32L78.86,1060.25h-9.4v-19.71L1073.62,36.38l11.56,4.56c3.17,1.25,6.37,2.38,9.61,3.38Z"/>
      <path class="cls-2" d="M1003.64,135.48L8.41,1130.71H0v-20.7l69.46-69.46L982.47,127.54l11.56,4.56c3.17,1.25,6.36,2.38,9.6,3.38h.01Z"/>
      <polygon class="cls-2" points="1149.4 50.72 69.4 1130.72 40.29 1130.72 1120.29 50.72 1149.4 50.72"/>
      <polygon class="cls-2" points="1209.4 50.72 129.4 1130.72 100.29 1130.72 1180.29 50.72 1209.4 50.72"/>
      <polygon class="cls-2" points="1269.4 50.72 189.4 1130.72 160.29 1130.72 1240.29 50.72 1269.4 50.72"/>
      <polygon class="cls-2" points="1329.4 50.72 249.4 1130.72 220.29 1130.72 1300.29 50.72 1329.4 50.72"/>
      <polygon class="cls-2" points="1389.4 50.72 309.4 1130.72 280.29 1130.72 1360.29 50.72 1389.4 50.72"/>
      <polygon class="cls-2" points="1449.4 50.72 369.4 1130.72 340.29 1130.72 1420.29 50.72 1449.4 50.72"/>
      <polygon class="cls-2" points="1509.4 50.72 429.4 1130.72 400.29 1130.72 1480.29 50.72 1509.4 50.72"/>
      <polygon class="cls-2" points="1569.4 50.72 489.4 1130.72 460.29 1130.72 1540.29 50.72 1569.4 50.72"/>
      <polygon class="cls-2" points="1629.4 50.72 549.4 1130.72 520.29 1130.72 1600.29 50.72 1629.4 50.72"/>
      <polygon class="cls-2" points="1689.4 50.72 609.4 1130.72 580.29 1130.72 1660.29 50.72 1689.4 50.72"/>
      <polygon class="cls-2" points="1749.4 50.72 669.4 1130.72 640.29 1130.72 1720.29 50.72 1749.4 50.72"/>
      <polygon class="cls-2" points="1809.4 50.72 729.4 1130.72 700.29 1130.72 1780.29 50.72 1809.4 50.72"/>
      <polygon class="cls-2" points="1869.4 50.72 789.4 1130.72 760.29 1130.72 1840.29 50.72 1869.4 50.72"/>
      <polygon class="cls-2" points="1920 50.71 1920 60.11 875.03 1105.08 830.82 1120.18 1900.29 50.71 1920 50.71"/>
      <path class="cls-2" d="M1920,91v29.11l-963.15,963.15c-11.79.18-23.57,2.12-34.93,5.82L1920,91Z"/>
      <path class="cls-2" d="M1920,151v29.11l-913.05,913.05-7.48-2.73c-4.8-1.75-9.68-3.18-14.62-4.28L1920,151Z"/>
      <polygon class="cls-2" points="1920 211 1920 240.11 1050.93 1109.18 1029.59 1101.41 1920 211"/>
      <path class="cls-2" d="M1920,271v29.11l-824.88,824.88c-2.83-.83-5.64-1.76-8.42-2.77l-13.13-4.79,846.43-846.43Z"/>
      <polygon class="cls-2" points="1920 331.01 1920 360.12 1149.4 1130.72 1120.29 1130.72 1920 331.01"/>
      <polygon class="cls-2" points="1920 391.01 1920 420.12 1209.4 1130.72 1180.29 1130.72 1920 391.01"/>
      <polygon class="cls-2" points="1920 451.01 1920 480.12 1269.4 1130.72 1240.29 1130.72 1920 451.01"/>
      <polygon class="cls-2" points="1920 511.01 1920 540.12 1329.4 1130.72 1300.29 1130.72 1920 511.01"/>
      <polygon class="cls-2" points="1920 571.01 1920 600.12 1389.4 1130.72 1360.29 1130.72 1920 571.01"/>
      <polygon class="cls-2" points="1920 631.01 1920 660.12 1449.4 1130.72 1420.29 1130.72 1920 631.01"/>
      <polygon class="cls-2" points="1920 691.01 1920 720.12 1509.4 1130.72 1480.29 1130.72 1920 691.01"/>
      <polygon class="cls-2" points="1920 751.01 1920 780.12 1569.4 1130.72 1540.29 1130.72 1920 751.01"/>
      <polygon class="cls-2" points="1920 811.01 1920 840.12 1629.4 1130.72 1600.29 1130.72 1920 811.01"/>
      <polygon class="cls-2" points="1920 871.01 1920 900.12 1689.4 1130.72 1660.29 1130.72 1920 871.01"/>
      <polygon class="cls-2" points="1920 931.01 1920 960.12 1749.4 1130.72 1720.29 1130.72 1920 931.01"/>
      <polygon class="cls-2" points="1920 991.01 1920 1020.12 1809.4 1130.72 1780.29 1130.72 1920 991.01"/>
      <polygon class="cls-2" points="1920 1051.01 1920 1080.12 1869.4 1130.72 1840.29 1130.72 1920 1051.01"/>
    </g>
  </g>
</svg>